<svg width="123" height="48" viewBox="0 0 123 48" fill="none" xmlns="http://www.w3.org/2000/svg">
<path d="M8.376 37.012C7.304 37.012 6.296 36.892 5.352 36.652C4.424 36.428 3.6 36.068 2.88 35.572C2.176 35.092 1.624 34.46 1.224 33.676C0.824 32.908 0.624 31.98 0.624 30.892C0.624 30.524 0.648 30.108 0.696 29.644C0.76 29.18 0.888 28.628 1.08 27.988C1.272 27.332 1.568 26.572 1.968 25.708L4.896 26.836C4.656 27.412 4.472 27.9 4.344 28.3C4.216 28.684 4.12 29.036 4.056 29.356C4.008 29.66 3.984 29.98 3.984 30.316C3.984 30.844 4.096 31.316 4.32 31.732C4.56 32.148 4.888 32.5 5.304 32.788C5.736 33.076 6.256 33.292 6.864 33.436C7.488 33.58 8.184 33.652 8.952 33.652C9.944 33.652 10.808 33.588 11.544 33.46C12.28 33.348 12.896 33.18 13.392 32.956C13.904 32.748 14.312 32.492 14.616 32.188C14.92 31.884 15.136 31.556 15.264 31.204C15.424 30.788 15.528 30.356 15.576 29.908C15.64 29.444 15.672 28.916 15.672 28.324C15.672 27.62 15.608 27.02 15.48 26.524C15.368 26.012 15.192 25.62 14.952 25.348C14.712 25.076 14.416 24.94 14.064 24.94C13.776 24.94 13.512 25.036 13.272 25.228C13.048 25.42 12.872 25.66 12.744 25.948C12.616 26.22 12.552 26.5 12.552 26.788C12.552 27.028 12.608 27.228 12.72 27.388C12.848 27.548 13.032 27.676 13.272 27.772C13.512 27.852 13.808 27.892 14.16 27.892C14.512 27.892 14.904 27.852 15.336 27.772C15.768 27.676 16.152 27.532 16.488 27.34L16.728 30.244C16.344 30.548 15.824 30.78 15.168 30.94C14.528 31.084 13.928 31.156 13.368 31.156C12.536 31.156 11.808 31.044 11.184 30.82C10.576 30.58 10.104 30.188 9.768 29.644C9.432 29.1 9.264 28.364 9.264 27.436C9.264 26.764 9.384 26.092 9.624 25.42C9.864 24.732 10.2 24.1 10.632 23.524C11.064 22.948 11.584 22.492 12.192 22.156C12.8 21.804 13.472 21.628 14.208 21.628C15.248 21.628 16.12 21.932 16.824 22.54C17.544 23.132 18.088 23.924 18.456 24.916C18.84 25.892 19.032 26.956 19.032 28.108C19.032 29.18 18.92 30.124 18.696 30.94C18.488 31.74 18.216 32.452 17.88 33.076C17.48 33.78 16.976 34.38 16.368 34.876C15.776 35.388 15.08 35.796 14.28 36.1C13.496 36.42 12.608 36.652 11.616 36.796C10.624 36.94 9.544 37.012 8.376 37.012ZM16.344 19.444C15.88 19.444 15.48 19.284 15.144 18.964C14.824 18.628 14.664 18.236 14.664 17.788C14.664 17.324 14.824 16.924 15.144 16.588C15.48 16.252 15.88 16.084 16.344 16.084C16.792 16.084 17.176 16.252 17.496 16.588C17.816 16.924 17.976 17.324 17.976 17.788C17.976 18.236 17.816 18.628 17.496 18.964C17.176 19.284 16.792 19.444 16.344 19.444ZM12.192 19.42C11.728 19.42 11.328 19.26 10.992 18.94C10.672 18.604 10.512 18.212 10.512 17.764C10.512 17.3 10.672 16.9 10.992 16.564C11.328 16.228 11.728 16.06 12.192 16.06C12.64 16.06 13.024 16.228 13.344 16.564C13.664 16.9 13.824 17.3 13.824 17.764C13.824 18.212 13.664 18.604 13.344 18.94C13.024 19.26 12.64 19.42 12.192 19.42ZM27.5768 32.62C26.0888 32.62 24.9368 32.468 24.1208 32.164C23.3208 31.86 22.7608 31.388 22.4408 30.748C22.1208 30.092 21.9368 29.268 21.8888 28.276L21.3848 14.932H24.7448L25.2488 26.668C25.2808 27.404 25.3608 27.956 25.4888 28.324C25.6168 28.692 25.8568 28.94 26.2088 29.068C26.5768 29.196 27.1128 29.26 27.8168 29.26C28.4248 29.26 28.8568 29.42 29.1128 29.74C29.3848 30.044 29.5208 30.428 29.5208 30.892C29.5208 31.388 29.3528 31.804 29.0168 32.14C28.6808 32.46 28.2008 32.62 27.5768 32.62ZM27.6094 32.62L27.8494 29.26C28.4254 29.26 28.9214 29.204 29.3374 29.092C29.7534 28.98 30.1054 28.756 30.3934 28.42C30.6814 28.068 30.9214 27.556 31.1134 26.884C31.3214 26.212 31.5054 25.316 31.6654 24.196L34.8094 24.724C34.7774 24.964 34.7294 25.244 34.6654 25.564C34.6174 25.884 34.5694 26.212 34.5214 26.548C34.4894 26.868 34.4734 27.172 34.4734 27.46C34.4734 27.748 34.5294 28.004 34.6414 28.228C34.7534 28.452 34.9294 28.644 35.1694 28.804C35.4254 28.948 35.7534 29.06 36.1534 29.14C36.5694 29.22 37.0734 29.26 37.6654 29.26C38.2734 29.26 38.7054 29.42 38.9614 29.74C39.2174 30.044 39.3454 30.428 39.3454 30.892C39.3454 31.388 39.1774 31.804 38.8414 32.14C38.5214 32.46 38.0494 32.62 37.4254 32.62C36.7054 32.62 36.0494 32.564 35.4574 32.452C34.8814 32.34 34.3774 32.156 33.9454 31.9C33.5294 31.628 33.1854 31.276 32.9134 30.844C32.6574 30.396 32.4974 29.852 32.4334 29.212H33.5854C33.2974 29.98 32.9294 30.596 32.4814 31.06C32.0494 31.508 31.5614 31.844 31.0174 32.068C30.4734 32.292 29.9054 32.436 29.3134 32.5C28.7374 32.58 28.1694 32.62 27.6094 32.62ZM34.3054 38.188C33.8414 38.188 33.4414 38.02 33.1054 37.684C32.7854 37.364 32.6254 36.98 32.6254 36.532C32.6254 36.068 32.7854 35.668 33.1054 35.332C33.4414 34.996 33.8414 34.828 34.3054 34.828C34.7534 34.828 35.1374 34.996 35.4574 35.332C35.7774 35.668 35.9374 36.068 35.9374 36.532C35.9374 36.98 35.7774 37.364 35.4574 37.684C35.1374 38.02 34.7534 38.188 34.3054 38.188ZM30.1534 38.188C29.6894 38.188 29.2894 38.02 28.9534 37.684C28.6334 37.364 28.4734 36.98 28.4734 36.532C28.4734 36.068 28.6334 35.668 28.9534 35.332C29.2894 34.996 29.6894 34.828 30.1534 34.828C30.6014 34.828 30.9854 34.996 31.3054 35.332C31.6254 35.668 31.7854 36.068 31.7854 36.532C31.7854 36.98 31.6254 37.364 31.3054 37.684C30.9854 38.02 30.6014 38.188 30.1534 38.188ZM46.335 36.892V35.212L51.999 33.532V35.26L46.335 36.892ZM37.4297 32.62L37.6697 29.26C38.1977 29.26 38.6297 29.22 38.9657 29.14C39.3017 29.044 39.5737 28.844 39.7817 28.54C40.0057 28.22 40.1977 27.748 40.3577 27.124C40.5337 26.484 40.7257 25.62 40.9337 24.532L44.0537 25.108C44.0057 25.348 43.9497 25.628 43.8857 25.948C43.8217 26.268 43.7657 26.596 43.7177 26.932C43.6697 27.252 43.6457 27.54 43.6457 27.796C43.6457 28.244 43.7897 28.604 44.0777 28.876C44.3657 29.132 44.9097 29.26 45.7097 29.26C46.1097 29.26 46.4537 29.22 46.7417 29.14C47.0457 29.044 47.3017 28.844 47.5097 28.54C47.7337 28.22 47.9257 27.732 48.0857 27.076C48.2617 26.404 48.4297 25.5 48.5897 24.364L51.7577 24.868C51.6937 25.236 51.6297 25.628 51.5657 26.044C51.5017 26.46 51.4457 26.844 51.3977 27.196C51.3497 27.548 51.3257 27.836 51.3257 28.06C51.3257 28.268 51.3817 28.468 51.4937 28.66C51.6217 28.836 51.8457 28.98 52.1657 29.092C52.5017 29.204 52.9737 29.26 53.5817 29.26C54.0137 29.26 54.3817 29.204 54.6857 29.092C55.0057 28.98 55.2457 28.796 55.4057 28.54C55.5817 28.284 55.6697 27.948 55.6697 27.532C55.6697 26.94 55.5337 26.164 55.2617 25.204C54.9897 24.244 54.6697 23.236 54.3017 22.18L57.6857 21.172C57.9417 21.86 58.1657 22.596 58.3577 23.38C58.5657 24.148 58.7257 24.9 58.8377 25.636C58.9657 26.356 59.0297 26.988 59.0297 27.532C59.0297 28.348 58.9017 29.076 58.6457 29.716C58.3897 30.34 58.0297 30.868 57.5657 31.3C57.1017 31.732 56.5497 32.06 55.9097 32.284C55.2697 32.508 54.5657 32.62 53.7977 32.62C52.8697 32.62 52.1097 32.532 51.5177 32.356C50.9257 32.164 50.4697 31.852 50.1497 31.42C49.8457 30.972 49.6457 30.364 49.5497 29.596H50.3657C50.0297 30.54 49.6537 31.228 49.2377 31.66C48.8217 32.076 48.3257 32.34 47.7497 32.452C47.1897 32.564 46.4857 32.62 45.6377 32.62C45.1097 32.62 44.5657 32.564 44.0057 32.452C43.4617 32.324 42.9737 32.036 42.5417 31.588C42.1097 31.14 41.7897 30.444 41.5817 29.5L42.8777 29.452C42.5417 30.396 42.1017 31.092 41.5577 31.54C41.0297 31.988 40.4217 32.284 39.7337 32.428C39.0457 32.556 38.2777 32.62 37.4297 32.62Z" fill="#1C77FF"/>
<circle cx="99" cy="24" r="24" fill="#1C77FF"/>
<path d="M111.577 21.3789C111.584 21.7461 111.342 22.4961 110.85 23.6289C110.342 24.8086 109.967 25.4023 109.725 25.4102C109.514 25.4102 109.405 25.2812 109.397 25.0234C109.397 24.9297 109.487 24.6484 109.666 24.1797C109.776 23.9062 109.885 23.6289 109.995 23.3477C109.237 23.8242 108.225 24.2109 106.959 24.5078C105.733 24.7969 104.545 24.9414 103.397 24.9414C103.045 24.9414 102.717 24.9258 102.413 24.8945C102.264 25.5352 101.944 26.1992 101.452 26.8867C100.967 27.5742 100.428 28.1133 99.8344 28.5039C98.9438 29.0742 97.7915 29.5352 96.3774 29.8867C95.0961 30.1992 93.8579 30.3672 92.6625 30.3906C90.4829 30.4297 88.725 30.1211 87.3891 29.4648C86.1 28.8398 85.4477 28.0117 85.4321 26.9805C85.4243 26.3789 85.6743 25.6797 86.1821 24.8828C86.7602 23.9688 87.4711 23.3086 88.3149 22.9023C89.7211 22.2305 91.5766 21.875 93.8813 21.8359C94.9985 21.8125 95.5571 21.9062 95.5571 22.1172C95.5571 22.2578 95.1977 22.4023 94.479 22.5508C92.9165 22.8867 91.7797 23.1484 91.0688 23.3359C89.8657 23.6562 88.8383 24.0508 87.9868 24.5195C87.2211 24.9492 86.8383 25.2969 86.8383 25.5625C86.8383 25.6875 86.9125 25.875 87.061 26.125C87.2563 26.4453 87.4985 26.7031 87.7875 26.8984C88.9282 27.6641 90.85 28.0234 93.5532 27.9766C95.6469 27.9453 97.4633 27.6016 99.0024 26.9453C100.377 26.3594 101.061 25.7773 101.053 25.1992C101.053 25.0508 100.905 24.7695 100.608 24.3555C100.319 23.9414 100.17 23.6406 100.163 23.4531C100.155 23.0547 100.276 22.6289 100.526 22.1758C100.776 21.7148 100.995 21.4844 101.182 21.4844C101.291 21.4766 101.428 21.5742 101.592 21.7773C101.788 22.0352 102.014 22.2227 102.272 22.3398C102.694 22.543 103.276 22.6367 104.018 22.6211C105.659 22.5977 107.284 22.3008 108.893 21.7305C109.651 21.4492 110.405 21.168 111.155 20.8867C111.428 20.8867 111.569 21.0508 111.577 21.3789Z" fill="white"/>
</svg>
