<svg width="100" height="50" viewBox="0 0 100 50" fill="none" xmlns="http://www.w3.org/2000/svg">
<path d="M41.0625 6.15625C39.7708 7.23958 37.8333 7.67708 35.25 7.46875C34.4167 7.40625 33.4583 7.14583 32.375 6.6875C31.1875 6.16667 30.5521 5.67708 30.4688 5.21875C30.3854 4.69792 30.625 4.35417 31.1875 4.1875C31.9792 4.02083 32.7708 3.85417 33.5625 3.6875C35.9167 3.16667 38.125 2.32292 40.1875 1.15625C40.6458 0.885417 41.0312 0.75 41.3438 0.75C42.0521 0.75 42.4062 1.30208 42.4062 2.40625C42.4062 4.15625 41.9583 5.40625 41.0625 6.15625ZM44.9062 21.0312C45.0521 25.6771 43.0729 29.6979 38.9688 33.0938C34.1771 37.0104 27.3438 39.125 18.4688 39.4375C13.7188 39.6042 9.57292 38.7083 6.03125 36.75C2.63542 34.8958 0.895833 32.7083 0.8125 30.1875C0.75 28.3958 1.0625 26.625 1.75 24.875C2.77083 22.25 4.51042 20.1979 6.96875 18.7188C9.63542 17.1146 12.375 16.0312 15.1875 15.4688C16.7292 15.1562 18.9688 14.9479 21.9062 14.8438C26.6771 14.6771 29.0729 14.9583 29.0938 15.6875C29.1146 16.2917 26.9062 16.9271 22.4688 17.5938C18.6146 18.1562 14.6354 19.3125 10.5312 21.0625C6.44792 22.7917 4.4375 24.4896 4.5 26.1562C4.54167 27.5729 5.79167 29 8.25 30.4375C11.5 32.3125 15.8125 33.1562 21.1875 32.9688C26.2708 32.8021 31.0312 31.7188 35.4688 29.7188C39.4062 27.9479 41.3542 26.4271 41.3125 25.1562C41.2917 24.5312 41.125 24.1667 40.8125 24.0625C40.7083 24.0208 40.4375 24.1146 40 24.3438C39.4792 24.6146 38.875 24.7604 38.1875 24.7812C37.25 24.8229 36.3854 24.4792 35.5938 23.75C34.8021 23.0208 34.3854 22.0833 34.3438 20.9375C34.2812 19.4375 34.6458 17.9167 35.4375 16.375C36.3542 14.625 37.4479 13.7292 38.7188 13.6875C40.0729 13.625 41.3958 14.3021 42.6875 15.7188C44.0833 17.2396 44.8229 19.0104 44.9062 21.0312ZM58.6562 30.0625C59.2396 30.0625 59.5312 30.5625 59.5312 31.5625C59.5312 32.5417 59.2917 33.5 58.8125 34.4375C58.2917 35.4792 57.6875 36 57 36C55.1875 36 54.0104 35.6562 53.4688 34.9688C52.9896 34.3646 52.6562 32.9688 52.4688 30.7812C51.9062 25.5104 51.2708 18.7188 50.5625 10.4062C50.5 9.17708 50.8021 7.83333 51.4688 6.375C52.1354 4.89583 52.7292 4.15625 53.25 4.15625C53.9167 4.15625 54.4479 6.30208 54.8438 10.5938C55.2396 14.8646 55.75 20.4375 56.375 27.3125C56.4792 28.3958 56.6354 29.0938 56.8438 29.4062C57.1354 29.8438 57.7396 30.0625 58.6562 30.0625ZM72.3438 30.0625C72.9271 30.0625 73.2188 30.5625 73.2188 31.5625C73.2188 32.5417 72.9792 33.5 72.5 34.4375C71.9792 35.4792 71.375 36 70.6875 36C67.9792 36 66.4479 34.9583 66.0938 32.875C63.6562 34.9583 60.6458 36 57.0625 36C56.4583 36 56.1562 35.4792 56.1562 34.4375C56.1562 33.4792 56.3958 32.5312 56.875 31.5938C57.3958 30.5729 58 30.0625 58.6875 30.0625C60.6042 30.0625 62.875 29.4375 65.5 28.1875C66 27.9375 66.75 27.3438 67.75 26.4062C68.625 25.6146 69.1875 25.2188 69.4375 25.2188C70.0625 25.2188 70.25 25.7083 70 26.6875C69.6667 28.0417 69.6771 28.9271 70.0312 29.3438C70.4479 29.8229 71.2188 30.0625 72.3438 30.0625ZM69.7188 47.5312C68.4271 48.6146 66.4896 49.0521 63.9062 48.8438C63.0729 48.7812 62.125 48.5208 61.0625 48.0625C59.8542 47.5417 59.2083 47.0521 59.125 46.5938C59.0417 46.0729 59.2812 45.7292 59.8438 45.5625C60.6354 45.3958 61.4271 45.2292 62.2188 45.0625C64.5729 44.5417 66.7812 43.6979 68.8438 42.5312C69.3021 42.2604 69.6875 42.125 70 42.125C70.7083 42.125 71.0625 42.6771 71.0625 43.7812C71.0625 45.5312 70.6146 46.7812 69.7188 47.5312ZM99.8125 25.9062C99.8125 26.8438 98.8438 29.1458 96.9062 32.8125C95.0938 36.1875 93.875 37.875 93.25 37.875C92.9583 37.875 92.8125 37.6458 92.8125 37.1875C92.8125 36.0833 93.3125 34.3646 94.3125 32.0312C84.9375 34.5521 77.0833 35.875 70.75 36C70.1458 36 69.8438 35.4896 69.8438 34.4688C69.8438 33.5104 70.1042 32.5417 70.625 31.5625C71.125 30.5625 71.7083 30.0625 72.375 30.0625C76.625 29.9792 82.1667 29.1042 89 27.4375C95.7708 25.7917 99.1042 24.9688 99 24.9688C99.5417 24.9688 99.8125 25.2812 99.8125 25.9062Z" fill="#1C77FF"/>
</svg>
